<mxfile host="65bd71144e">
    <diagram name="Action - Point" id="z6aI_Nf8nbqKw_6ES5bR">
        <mxGraphModel dx="736" dy="544" grid="1" gridSize="10" guides="1" tooltips="1" connect="1" arrows="1" fold="1" page="1" pageScale="1" pageWidth="827" pageHeight="1169" math="0" shadow="0">
            <root>
                <mxCell id="0"/>
                <mxCell id="1" parent="0"/>
                <mxCell id="8ZKEaV6THU4rE0eOHfV3-3" style="rounded=0;orthogonalLoop=1;jettySize=auto;html=1;" parent="1" source="8ZKEaV6THU4rE0eOHfV3-1" target="8ZKEaV6THU4rE0eOHfV3-2" edge="1">
                    <mxGeometry relative="1" as="geometry"/>
                </mxCell>
                <mxCell id="8ZKEaV6THU4rE0eOHfV3-4" value="Type of throw" style="edgeLabel;html=1;align=center;verticalAlign=middle;resizable=0;points=[];rotation=-45;" parent="8ZKEaV6THU4rE0eOHfV3-3" vertex="1" connectable="0">
                    <mxGeometry x="-0.0441" y="-1" relative="1" as="geometry">
                        <mxPoint x="-7" y="-12" as="offset"/>
                    </mxGeometry>
                </mxCell>
                <mxCell id="8ZKEaV6THU4rE0eOHfV3-1" value="No. / Name" style="ellipse;whiteSpace=wrap;html=1;aspect=fixed;" parent="1" vertex="1">
                    <mxGeometry x="310" y="70" width="80" height="80" as="geometry"/>
                </mxCell>
                <mxCell id="8ZKEaV6THU4rE0eOHfV3-2" value="No. Name" style="ellipse;whiteSpace=wrap;html=1;aspect=fixed;" parent="1" vertex="1">
                    <mxGeometry x="140" y="240" width="80" height="80" as="geometry"/>
                </mxCell>
            </root>
        </mxGraphModel>
    </diagram>
    <diagram id="TsnM5-IJDgOnN48OshSX" name="Overview">
        <mxGraphModel dx="1151" dy="573" grid="1" gridSize="10" guides="1" tooltips="1" connect="1" arrows="1" fold="1" page="0" pageScale="1" pageWidth="827" pageHeight="1169" math="0" shadow="0">
            <root>
                <mxCell id="0"/>
                <mxCell id="1" parent="0"/>
                <mxCell id="7ix2KAI7kCTPjR5zb3OR-1" value="&lt;h1&gt;Start Action&lt;/h1&gt;&lt;p&gt;Lorem ipsum dolor sit amet, consectetur adipisicing elit, sed do eiusmod tempor incididunt ut labore et dolore magna aliqua.&lt;/p&gt;" style="text;html=1;strokeColor=none;fillColor=none;spacing=5;spacingTop=-20;whiteSpace=wrap;overflow=hidden;rounded=0;" vertex="1" parent="1">
                    <mxGeometry x="110" y="117" width="190" height="120" as="geometry"/>
                </mxCell>
                <mxCell id="7ix2KAI7kCTPjR5zb3OR-10" style="edgeStyle=orthogonalEdgeStyle;html=1;entryX=0.5;entryY=0;entryDx=0;entryDy=0;exitX=0;exitY=0.5;exitDx=0;exitDy=0;" edge="1" parent="1" source="7ix2KAI7kCTPjR5zb3OR-21" target="7ix2KAI7kCTPjR5zb3OR-3">
                    <mxGeometry relative="1" as="geometry">
                        <Array as="points">
                            <mxPoint x="320" y="300"/>
                        </Array>
                    </mxGeometry>
                </mxCell>
                <mxCell id="7ix2KAI7kCTPjR5zb3OR-25" value="False" style="edgeLabel;html=1;align=center;verticalAlign=middle;resizable=0;points=[];" vertex="1" connectable="0" parent="7ix2KAI7kCTPjR5zb3OR-10">
                    <mxGeometry x="-0.4317" y="3" relative="1" as="geometry">
                        <mxPoint x="-58" y="-23" as="offset"/>
                    </mxGeometry>
                </mxCell>
                <mxCell id="7ix2KAI7kCTPjR5zb3OR-22" style="edgeStyle=orthogonalEdgeStyle;html=1;entryX=0.5;entryY=0;entryDx=0;entryDy=0;" edge="1" parent="1" source="7ix2KAI7kCTPjR5zb3OR-2" target="7ix2KAI7kCTPjR5zb3OR-21">
                    <mxGeometry relative="1" as="geometry"/>
                </mxCell>
                <mxCell id="7ix2KAI7kCTPjR5zb3OR-2" value="The Pull" style="rounded=1;whiteSpace=wrap;html=1;" vertex="1" parent="1">
                    <mxGeometry x="520" y="160" width="120" height="60" as="geometry"/>
                </mxCell>
                <mxCell id="7ix2KAI7kCTPjR5zb3OR-3" value="Pull lift" style="rounded=1;whiteSpace=wrap;html=1;" vertex="1" parent="1">
                    <mxGeometry x="260" y="370" width="120" height="60" as="geometry"/>
                </mxCell>
                <mxCell id="7ix2KAI7kCTPjR5zb3OR-4" value="Data" style="swimlane;fontStyle=0;childLayout=stackLayout;horizontal=1;startSize=30;horizontalStack=0;resizeParent=1;resizeParentMax=0;resizeLast=0;collapsible=1;marginBottom=0;whiteSpace=wrap;html=1;" vertex="1" collapsed="1" parent="1">
                    <mxGeometry x="648" y="160" width="70" height="30" as="geometry">
                        <mxRectangle x="660" y="160" width="140" height="120" as="alternateBounds"/>
                    </mxGeometry>
                </mxCell>
                <mxCell id="7ix2KAI7kCTPjR5zb3OR-5" value="team:str" style="text;strokeColor=none;fillColor=none;align=left;verticalAlign=middle;spacingLeft=4;spacingRight=4;overflow=hidden;points=[[0,0.5],[1,0.5]];portConstraint=eastwest;rotatable=0;whiteSpace=wrap;html=1;" vertex="1" parent="7ix2KAI7kCTPjR5zb3OR-4">
                    <mxGeometry y="30" width="140" height="30" as="geometry"/>
                </mxCell>
                <mxCell id="7ix2KAI7kCTPjR5zb3OR-9" value="player:int" style="text;strokeColor=none;fillColor=none;align=left;verticalAlign=middle;spacingLeft=4;spacingRight=4;overflow=hidden;points=[[0,0.5],[1,0.5]];portConstraint=eastwest;rotatable=0;whiteSpace=wrap;html=1;" vertex="1" parent="7ix2KAI7kCTPjR5zb3OR-4">
                    <mxGeometry y="60" width="140" height="30" as="geometry"/>
                </mxCell>
                <mxCell id="7ix2KAI7kCTPjR5zb3OR-8" value="in_bounds:bool" style="text;strokeColor=none;fillColor=none;align=left;verticalAlign=middle;spacingLeft=4;spacingRight=4;overflow=hidden;points=[[0,0.5],[1,0.5]];portConstraint=eastwest;rotatable=0;whiteSpace=wrap;html=1;" vertex="1" parent="7ix2KAI7kCTPjR5zb3OR-4">
                    <mxGeometry y="90" width="140" height="30" as="geometry"/>
                </mxCell>
                <mxCell id="7ix2KAI7kCTPjR5zb3OR-11" value="Pull &lt;br&gt;catch" style="rounded=1;whiteSpace=wrap;html=1;" vertex="1" parent="1">
                    <mxGeometry x="990" y="490" width="120" height="60" as="geometry"/>
                </mxCell>
                <mxCell id="7ix2KAI7kCTPjR5zb3OR-13" value="Data" style="swimlane;fontStyle=0;childLayout=stackLayout;horizontal=1;startSize=30;horizontalStack=0;resizeParent=1;resizeParentMax=0;resizeLast=0;collapsible=1;marginBottom=0;whiteSpace=wrap;html=1;" vertex="1" collapsed="1" parent="1">
                    <mxGeometry x="1118" y="490" width="70" height="30" as="geometry">
                        <mxRectangle x="1120" y="490" width="140" height="90" as="alternateBounds"/>
                    </mxGeometry>
                </mxCell>
                <mxCell id="7ix2KAI7kCTPjR5zb3OR-14" value="team:str" style="text;strokeColor=none;fillColor=none;align=left;verticalAlign=middle;spacingLeft=4;spacingRight=4;overflow=hidden;points=[[0,0.5],[1,0.5]];portConstraint=eastwest;rotatable=0;whiteSpace=wrap;html=1;" vertex="1" parent="7ix2KAI7kCTPjR5zb3OR-13">
                    <mxGeometry y="30" width="140" height="30" as="geometry"/>
                </mxCell>
                <mxCell id="7ix2KAI7kCTPjR5zb3OR-15" value="player:int" style="text;strokeColor=none;fillColor=none;align=left;verticalAlign=middle;spacingLeft=4;spacingRight=4;overflow=hidden;points=[[0,0.5],[1,0.5]];portConstraint=eastwest;rotatable=0;whiteSpace=wrap;html=1;" vertex="1" parent="7ix2KAI7kCTPjR5zb3OR-13">
                    <mxGeometry y="60" width="140" height="30" as="geometry"/>
                </mxCell>
                <mxCell id="7ix2KAI7kCTPjR5zb3OR-17" value="Data" style="swimlane;fontStyle=0;childLayout=stackLayout;horizontal=1;startSize=30;horizontalStack=0;resizeParent=1;resizeParentMax=0;resizeLast=0;collapsible=1;marginBottom=0;whiteSpace=wrap;html=1;" vertex="1" collapsed="1" parent="1">
                    <mxGeometry x="389" y="370" width="70" height="30" as="geometry">
                        <mxRectangle x="400" y="370" width="140" height="120" as="alternateBounds"/>
                    </mxGeometry>
                </mxCell>
                <mxCell id="7ix2KAI7kCTPjR5zb3OR-18" value="team:str" style="text;strokeColor=none;fillColor=none;align=left;verticalAlign=middle;spacingLeft=4;spacingRight=4;overflow=hidden;points=[[0,0.5],[1,0.5]];portConstraint=eastwest;rotatable=0;whiteSpace=wrap;html=1;" vertex="1" parent="7ix2KAI7kCTPjR5zb3OR-17">
                    <mxGeometry y="30" width="140" height="30" as="geometry"/>
                </mxCell>
                <mxCell id="7ix2KAI7kCTPjR5zb3OR-19" value="player:int" style="text;strokeColor=none;fillColor=none;align=left;verticalAlign=middle;spacingLeft=4;spacingRight=4;overflow=hidden;points=[[0,0.5],[1,0.5]];portConstraint=eastwest;rotatable=0;whiteSpace=wrap;html=1;" vertex="1" parent="7ix2KAI7kCTPjR5zb3OR-17">
                    <mxGeometry y="60" width="140" height="30" as="geometry"/>
                </mxCell>
                <mxCell id="7ix2KAI7kCTPjR5zb3OR-20" value="brick:bool" style="text;strokeColor=none;fillColor=none;align=left;verticalAlign=middle;spacingLeft=4;spacingRight=4;overflow=hidden;points=[[0,0.5],[1,0.5]];portConstraint=eastwest;rotatable=0;whiteSpace=wrap;html=1;" vertex="1" parent="7ix2KAI7kCTPjR5zb3OR-17">
                    <mxGeometry y="90" width="140" height="30" as="geometry"/>
                </mxCell>
                <mxCell id="7ix2KAI7kCTPjR5zb3OR-34" value="" style="edgeStyle=orthogonalEdgeStyle;html=1;" edge="1" parent="1" source="7ix2KAI7kCTPjR5zb3OR-21" target="7ix2KAI7kCTPjR5zb3OR-33">
                    <mxGeometry relative="1" as="geometry"/>
                </mxCell>
                <mxCell id="7ix2KAI7kCTPjR5zb3OR-35" value="True" style="edgeLabel;html=1;align=center;verticalAlign=middle;resizable=0;points=[];" vertex="1" connectable="0" parent="7ix2KAI7kCTPjR5zb3OR-34">
                    <mxGeometry x="-0.1726" y="4" relative="1" as="geometry">
                        <mxPoint y="-16" as="offset"/>
                    </mxGeometry>
                </mxCell>
                <mxCell id="7ix2KAI7kCTPjR5zb3OR-21" value="In &lt;br&gt;bounds?" style="rhombus;whiteSpace=wrap;html=1;" vertex="1" parent="1">
                    <mxGeometry x="540" y="260" width="80" height="80" as="geometry"/>
                </mxCell>
                <mxCell id="7ix2KAI7kCTPjR5zb3OR-26" value="Pull lift" style="rounded=1;whiteSpace=wrap;html=1;" vertex="1" parent="1">
                    <mxGeometry x="640" y="490" width="120" height="60" as="geometry"/>
                </mxCell>
                <mxCell id="7ix2KAI7kCTPjR5zb3OR-27" value="Data" style="swimlane;fontStyle=0;childLayout=stackLayout;horizontal=1;startSize=30;horizontalStack=0;resizeParent=1;resizeParentMax=0;resizeLast=0;collapsible=1;marginBottom=0;whiteSpace=wrap;html=1;" vertex="1" collapsed="1" parent="1">
                    <mxGeometry x="769" y="490" width="70" height="30" as="geometry">
                        <mxRectangle x="780" y="490" width="140" height="90" as="alternateBounds"/>
                    </mxGeometry>
                </mxCell>
                <mxCell id="7ix2KAI7kCTPjR5zb3OR-28" value="team:str" style="text;strokeColor=none;fillColor=none;align=left;verticalAlign=middle;spacingLeft=4;spacingRight=4;overflow=hidden;points=[[0,0.5],[1,0.5]];portConstraint=eastwest;rotatable=0;whiteSpace=wrap;html=1;" vertex="1" parent="7ix2KAI7kCTPjR5zb3OR-27">
                    <mxGeometry y="30" width="140" height="30" as="geometry"/>
                </mxCell>
                <mxCell id="7ix2KAI7kCTPjR5zb3OR-29" value="player:int" style="text;strokeColor=none;fillColor=none;align=left;verticalAlign=middle;spacingLeft=4;spacingRight=4;overflow=hidden;points=[[0,0.5],[1,0.5]];portConstraint=eastwest;rotatable=0;whiteSpace=wrap;html=1;" vertex="1" parent="7ix2KAI7kCTPjR5zb3OR-27">
                    <mxGeometry y="60" width="140" height="30" as="geometry"/>
                </mxCell>
                <mxCell id="7ix2KAI7kCTPjR5zb3OR-36" style="edgeStyle=orthogonalEdgeStyle;html=1;entryX=0.5;entryY=0;entryDx=0;entryDy=0;" edge="1" parent="1" source="7ix2KAI7kCTPjR5zb3OR-33" target="7ix2KAI7kCTPjR5zb3OR-26">
                    <mxGeometry relative="1" as="geometry"/>
                </mxCell>
                <mxCell id="7ix2KAI7kCTPjR5zb3OR-37" value="False" style="edgeLabel;html=1;align=center;verticalAlign=middle;resizable=0;points=[];" vertex="1" connectable="0" parent="7ix2KAI7kCTPjR5zb3OR-36">
                    <mxGeometry x="-0.2268" y="-1" relative="1" as="geometry">
                        <mxPoint x="27" y="-19" as="offset"/>
                    </mxGeometry>
                </mxCell>
                <mxCell id="7ix2KAI7kCTPjR5zb3OR-38" style="edgeStyle=orthogonalEdgeStyle;html=1;" edge="1" parent="1" source="7ix2KAI7kCTPjR5zb3OR-33" target="7ix2KAI7kCTPjR5zb3OR-11">
                    <mxGeometry relative="1" as="geometry"/>
                </mxCell>
                <mxCell id="7ix2KAI7kCTPjR5zb3OR-39" value="True" style="edgeLabel;html=1;align=center;verticalAlign=middle;resizable=0;points=[];" vertex="1" connectable="0" parent="7ix2KAI7kCTPjR5zb3OR-38">
                    <mxGeometry x="-0.2987" y="3" relative="1" as="geometry">
                        <mxPoint y="-17" as="offset"/>
                    </mxGeometry>
                </mxCell>
                <mxCell id="7ix2KAI7kCTPjR5zb3OR-33" value="Caught?" style="rhombus;whiteSpace=wrap;html=1;" vertex="1" parent="1">
                    <mxGeometry x="850" y="350" width="80" height="80" as="geometry"/>
                </mxCell>
                <mxCell id="7ix2KAI7kCTPjR5zb3OR-40" value="&lt;h1&gt;Standard Actions&lt;/h1&gt;&lt;p&gt;Lorem ipsum dolor sit amet, consectetur adipisicing elit, sed do eiusmod tempor incididunt ut labore et dolore magna aliqua.&lt;/p&gt;" style="text;html=1;strokeColor=none;fillColor=none;spacing=5;spacingTop=-20;whiteSpace=wrap;overflow=hidden;rounded=0;" vertex="1" parent="1">
                    <mxGeometry x="110" y="603" width="190" height="120" as="geometry"/>
                </mxCell>
                <mxCell id="7ix2KAI7kCTPjR5zb3OR-59" style="edgeStyle=orthogonalEdgeStyle;html=1;entryX=0.5;entryY=0;entryDx=0;entryDy=0;" edge="1" parent="1" source="7ix2KAI7kCTPjR5zb3OR-42" target="7ix2KAI7kCTPjR5zb3OR-108">
                    <mxGeometry relative="1" as="geometry"/>
                </mxCell>
                <mxCell id="7ix2KAI7kCTPjR5zb3OR-42" value="Throw" style="rounded=1;whiteSpace=wrap;html=1;gradientColor=none;" vertex="1" parent="1">
                    <mxGeometry x="520" y="650" width="120" height="60" as="geometry"/>
                </mxCell>
                <mxCell id="7ix2KAI7kCTPjR5zb3OR-43" value="Stall Out" style="rounded=1;whiteSpace=wrap;html=1;" vertex="1" parent="1">
                    <mxGeometry x="1410" y="650" width="120" height="60" as="geometry"/>
                </mxCell>
                <mxCell id="7ix2KAI7kCTPjR5zb3OR-44" value="" style="endArrow=none;dashed=1;html=1;exitX=0;exitY=0;exitDx=0;exitDy=0;" edge="1" parent="1" source="7ix2KAI7kCTPjR5zb3OR-40">
                    <mxGeometry width="50" height="50" relative="1" as="geometry">
                        <mxPoint x="570" y="723" as="sourcePoint"/>
                        <mxPoint x="1307.2727272727273" y="603" as="targetPoint"/>
                    </mxGeometry>
                </mxCell>
                <mxCell id="7ix2KAI7kCTPjR5zb3OR-45" value="" style="endArrow=none;dashed=1;html=1;exitX=0;exitY=0;exitDx=0;exitDy=0;" edge="1" parent="1">
                    <mxGeometry width="50" height="50" relative="1" as="geometry">
                        <mxPoint x="110" y="117" as="sourcePoint"/>
                        <mxPoint x="1307.272727272727" y="117" as="targetPoint"/>
                    </mxGeometry>
                </mxCell>
                <mxCell id="7ix2KAI7kCTPjR5zb3OR-46" value="Data" style="swimlane;fontStyle=0;childLayout=stackLayout;horizontal=1;startSize=30;horizontalStack=0;resizeParent=1;resizeParentMax=0;resizeLast=0;collapsible=1;marginBottom=0;whiteSpace=wrap;html=1;" vertex="1" collapsed="1" parent="1">
                    <mxGeometry x="648" y="650" width="70" height="30" as="geometry">
                        <mxRectangle x="650" y="650" width="210" height="150" as="alternateBounds"/>
                    </mxGeometry>
                </mxCell>
                <mxCell id="7ix2KAI7kCTPjR5zb3OR-47" value="team:str" style="text;strokeColor=none;fillColor=none;align=left;verticalAlign=middle;spacingLeft=4;spacingRight=4;overflow=hidden;points=[[0,0.5],[1,0.5]];portConstraint=eastwest;rotatable=0;whiteSpace=wrap;html=1;" vertex="1" parent="7ix2KAI7kCTPjR5zb3OR-46">
                    <mxGeometry y="30" width="210" height="30" as="geometry"/>
                </mxCell>
                <mxCell id="7ix2KAI7kCTPjR5zb3OR-48" value="player:int" style="text;strokeColor=none;fillColor=none;align=left;verticalAlign=middle;spacingLeft=4;spacingRight=4;overflow=hidden;points=[[0,0.5],[1,0.5]];portConstraint=eastwest;rotatable=0;whiteSpace=wrap;html=1;" vertex="1" parent="7ix2KAI7kCTPjR5zb3OR-46">
                    <mxGeometry y="60" width="210" height="30" as="geometry"/>
                </mxCell>
                <mxCell id="7ix2KAI7kCTPjR5zb3OR-49" value="throw_type:enum" style="text;strokeColor=none;fillColor=none;align=left;verticalAlign=middle;spacingLeft=4;spacingRight=4;overflow=hidden;points=[[0,0.5],[1,0.5]];portConstraint=eastwest;rotatable=0;whiteSpace=wrap;html=1;" vertex="1" parent="7ix2KAI7kCTPjR5zb3OR-46">
                    <mxGeometry y="90" width="210" height="30" as="geometry"/>
                </mxCell>
                <mxCell id="7ix2KAI7kCTPjR5zb3OR-54" value="direction:Literal[&quot;backward&quot;,&quot;forward&quot;]" style="text;strokeColor=none;fillColor=none;align=left;verticalAlign=middle;spacingLeft=4;spacingRight=4;overflow=hidden;points=[[0,0.5],[1,0.5]];portConstraint=eastwest;rotatable=0;whiteSpace=wrap;html=1;" vertex="1" parent="7ix2KAI7kCTPjR5zb3OR-46">
                    <mxGeometry y="120" width="210" height="30" as="geometry"/>
                </mxCell>
                <mxCell id="7ix2KAI7kCTPjR5zb3OR-50" value="Data" style="swimlane;fontStyle=0;childLayout=stackLayout;horizontal=1;startSize=30;horizontalStack=0;resizeParent=1;resizeParentMax=0;resizeLast=0;collapsible=1;marginBottom=0;whiteSpace=wrap;html=1;" vertex="1" collapsed="1" parent="1">
                    <mxGeometry x="1540" y="650" width="70" height="30" as="geometry">
                        <mxRectangle x="400" y="370" width="140" height="120" as="alternateBounds"/>
                    </mxGeometry>
                </mxCell>
                <mxCell id="7ix2KAI7kCTPjR5zb3OR-51" value="team:str" style="text;strokeColor=none;fillColor=none;align=left;verticalAlign=middle;spacingLeft=4;spacingRight=4;overflow=hidden;points=[[0,0.5],[1,0.5]];portConstraint=eastwest;rotatable=0;whiteSpace=wrap;html=1;" vertex="1" parent="7ix2KAI7kCTPjR5zb3OR-50">
                    <mxGeometry y="30" width="140" height="30" as="geometry"/>
                </mxCell>
                <mxCell id="7ix2KAI7kCTPjR5zb3OR-52" value="player:int" style="text;strokeColor=none;fillColor=none;align=left;verticalAlign=middle;spacingLeft=4;spacingRight=4;overflow=hidden;points=[[0,0.5],[1,0.5]];portConstraint=eastwest;rotatable=0;whiteSpace=wrap;html=1;" vertex="1" parent="7ix2KAI7kCTPjR5zb3OR-50">
                    <mxGeometry y="60" width="140" height="30" as="geometry"/>
                </mxCell>
                <mxCell id="7ix2KAI7kCTPjR5zb3OR-53" value="brick:bool" style="text;strokeColor=none;fillColor=none;align=left;verticalAlign=middle;spacingLeft=4;spacingRight=4;overflow=hidden;points=[[0,0.5],[1,0.5]];portConstraint=eastwest;rotatable=0;whiteSpace=wrap;html=1;" vertex="1" parent="7ix2KAI7kCTPjR5zb3OR-50">
                    <mxGeometry y="90" width="140" height="30" as="geometry"/>
                </mxCell>
                <mxCell id="7ix2KAI7kCTPjR5zb3OR-61" value="" style="edgeStyle=orthogonalEdgeStyle;html=1;" edge="1" parent="1" source="7ix2KAI7kCTPjR5zb3OR-58" target="7ix2KAI7kCTPjR5zb3OR-60">
                    <mxGeometry relative="1" as="geometry"/>
                </mxCell>
                <mxCell id="7ix2KAI7kCTPjR5zb3OR-62" value="False" style="edgeLabel;html=1;align=center;verticalAlign=middle;resizable=0;points=[];" vertex="1" connectable="0" parent="7ix2KAI7kCTPjR5zb3OR-61">
                    <mxGeometry x="-0.2682" y="2" relative="1" as="geometry">
                        <mxPoint x="1" y="-22" as="offset"/>
                    </mxGeometry>
                </mxCell>
                <mxCell id="7ix2KAI7kCTPjR5zb3OR-64" style="edgeStyle=orthogonalEdgeStyle;html=1;" edge="1" parent="1" source="7ix2KAI7kCTPjR5zb3OR-58" target="7ix2KAI7kCTPjR5zb3OR-66">
                    <mxGeometry relative="1" as="geometry">
                        <mxPoint x="460.9473684210527" y="1010" as="targetPoint"/>
                    </mxGeometry>
                </mxCell>
                <mxCell id="7ix2KAI7kCTPjR5zb3OR-65" value="True" style="edgeLabel;html=1;align=center;verticalAlign=middle;resizable=0;points=[];" vertex="1" connectable="0" parent="7ix2KAI7kCTPjR5zb3OR-64">
                    <mxGeometry x="-0.239" y="-4" relative="1" as="geometry">
                        <mxPoint y="-24" as="offset"/>
                    </mxGeometry>
                </mxCell>
                <mxCell id="7ix2KAI7kCTPjR5zb3OR-58" value="Caught?" style="rhombus;whiteSpace=wrap;html=1;" vertex="1" parent="1">
                    <mxGeometry x="145" y="910" width="80" height="80" as="geometry"/>
                </mxCell>
                <mxCell id="7ix2KAI7kCTPjR5zb3OR-71" style="edgeStyle=orthogonalEdgeStyle;html=1;exitX=1;exitY=0.5;exitDx=0;exitDy=0;entryX=0.5;entryY=0;entryDx=0;entryDy=0;" edge="1" parent="1" source="7ix2KAI7kCTPjR5zb3OR-60" target="7ix2KAI7kCTPjR5zb3OR-70">
                    <mxGeometry relative="1" as="geometry"/>
                </mxCell>
                <mxCell id="7ix2KAI7kCTPjR5zb3OR-72" value="True" style="edgeLabel;html=1;align=center;verticalAlign=middle;resizable=0;points=[];" vertex="1" connectable="0" parent="7ix2KAI7kCTPjR5zb3OR-71">
                    <mxGeometry x="-0.1169" y="2" relative="1" as="geometry">
                        <mxPoint x="-39" y="-13" as="offset"/>
                    </mxGeometry>
                </mxCell>
                <mxCell id="7ix2KAI7kCTPjR5zb3OR-74" style="edgeStyle=orthogonalEdgeStyle;html=1;" edge="1" parent="1" source="7ix2KAI7kCTPjR5zb3OR-60" target="7ix2KAI7kCTPjR5zb3OR-73">
                    <mxGeometry relative="1" as="geometry"/>
                </mxCell>
                <mxCell id="7ix2KAI7kCTPjR5zb3OR-75" value="False" style="edgeLabel;html=1;align=center;verticalAlign=middle;resizable=0;points=[];" vertex="1" connectable="0" parent="7ix2KAI7kCTPjR5zb3OR-74">
                    <mxGeometry x="-0.0866" y="2" relative="1" as="geometry">
                        <mxPoint x="36" y="-17" as="offset"/>
                    </mxGeometry>
                </mxCell>
                <mxCell id="7ix2KAI7kCTPjR5zb3OR-60" value="Defense?" style="rhombus;whiteSpace=wrap;html=1;" vertex="1" parent="1">
                    <mxGeometry x="-130" y="1020" width="80" height="80" as="geometry"/>
                </mxCell>
                <mxCell id="7ix2KAI7kCTPjR5zb3OR-66" value="Throw &lt;br&gt;catch" style="rounded=1;whiteSpace=wrap;html=1;" vertex="1" parent="1">
                    <mxGeometry x="404" y="1030" width="120" height="60" as="geometry"/>
                </mxCell>
                <mxCell id="7ix2KAI7kCTPjR5zb3OR-67" value="Data" style="swimlane;fontStyle=0;childLayout=stackLayout;horizontal=1;startSize=30;horizontalStack=0;resizeParent=1;resizeParentMax=0;resizeLast=0;collapsible=1;marginBottom=0;whiteSpace=wrap;html=1;" vertex="1" collapsed="1" parent="1">
                    <mxGeometry x="531" y="1030" width="70" height="30" as="geometry">
                        <mxRectangle x="930" y="925" width="140" height="90" as="alternateBounds"/>
                    </mxGeometry>
                </mxCell>
                <mxCell id="7ix2KAI7kCTPjR5zb3OR-68" value="team:str" style="text;strokeColor=none;fillColor=none;align=left;verticalAlign=middle;spacingLeft=4;spacingRight=4;overflow=hidden;points=[[0,0.5],[1,0.5]];portConstraint=eastwest;rotatable=0;whiteSpace=wrap;html=1;" vertex="1" parent="7ix2KAI7kCTPjR5zb3OR-67">
                    <mxGeometry y="30" width="140" height="30" as="geometry"/>
                </mxCell>
                <mxCell id="7ix2KAI7kCTPjR5zb3OR-69" value="player:int" style="text;strokeColor=none;fillColor=none;align=left;verticalAlign=middle;spacingLeft=4;spacingRight=4;overflow=hidden;points=[[0,0.5],[1,0.5]];portConstraint=eastwest;rotatable=0;whiteSpace=wrap;html=1;" vertex="1" parent="7ix2KAI7kCTPjR5zb3OR-67">
                    <mxGeometry y="60" width="140" height="30" as="geometry"/>
                </mxCell>
                <mxCell id="7ix2KAI7kCTPjR5zb3OR-85" style="edgeStyle=orthogonalEdgeStyle;html=1;entryX=0.5;entryY=0;entryDx=0;entryDy=0;" edge="1" parent="1" source="7ix2KAI7kCTPjR5zb3OR-70" target="7ix2KAI7kCTPjR5zb3OR-84">
                    <mxGeometry relative="1" as="geometry"/>
                </mxCell>
                <mxCell id="7ix2KAI7kCTPjR5zb3OR-70" value="Active turnover" style="rounded=1;whiteSpace=wrap;html=1;" vertex="1" parent="1">
                    <mxGeometry x="87.5" y="1153.92" width="120" height="60" as="geometry"/>
                </mxCell>
                <mxCell id="7ix2KAI7kCTPjR5zb3OR-103" style="edgeStyle=orthogonalEdgeStyle;html=1;entryX=0.5;entryY=0;entryDx=0;entryDy=0;" edge="1" parent="1" source="7ix2KAI7kCTPjR5zb3OR-73" target="7ix2KAI7kCTPjR5zb3OR-99">
                    <mxGeometry relative="1" as="geometry"/>
                </mxCell>
                <mxCell id="7ix2KAI7kCTPjR5zb3OR-73" value="Passive turnover" style="rounded=1;whiteSpace=wrap;html=1;" vertex="1" parent="1">
                    <mxGeometry x="-350" y="1153.92" width="120" height="60" as="geometry"/>
                </mxCell>
                <mxCell id="7ix2KAI7kCTPjR5zb3OR-80" value="Data" style="swimlane;fontStyle=0;childLayout=stackLayout;horizontal=1;startSize=30;horizontalStack=0;resizeParent=1;resizeParentMax=0;resizeLast=0;collapsible=1;marginBottom=0;whiteSpace=wrap;html=1;" vertex="1" collapsed="1" parent="1">
                    <mxGeometry x="212.5" y="1153.92" width="70" height="30" as="geometry">
                        <mxRectangle x="220" y="1030" width="140" height="120" as="alternateBounds"/>
                    </mxGeometry>
                </mxCell>
                <mxCell id="7ix2KAI7kCTPjR5zb3OR-81" value="team:str" style="text;strokeColor=none;fillColor=none;align=left;verticalAlign=middle;spacingLeft=4;spacingRight=4;overflow=hidden;points=[[0,0.5],[1,0.5]];portConstraint=eastwest;rotatable=0;whiteSpace=wrap;html=1;" vertex="1" parent="7ix2KAI7kCTPjR5zb3OR-80">
                    <mxGeometry y="30" width="140" height="30" as="geometry"/>
                </mxCell>
                <mxCell id="7ix2KAI7kCTPjR5zb3OR-82" value="player:int" style="text;strokeColor=none;fillColor=none;align=left;verticalAlign=middle;spacingLeft=4;spacingRight=4;overflow=hidden;points=[[0,0.5],[1,0.5]];portConstraint=eastwest;rotatable=0;whiteSpace=wrap;html=1;" vertex="1" parent="7ix2KAI7kCTPjR5zb3OR-80">
                    <mxGeometry y="60" width="140" height="30" as="geometry"/>
                </mxCell>
                <mxCell id="7ix2KAI7kCTPjR5zb3OR-83" value="defense_type:enum" style="text;strokeColor=none;fillColor=none;align=left;verticalAlign=middle;spacingLeft=4;spacingRight=4;overflow=hidden;points=[[0,0.5],[1,0.5]];portConstraint=eastwest;rotatable=0;whiteSpace=wrap;html=1;" vertex="1" parent="7ix2KAI7kCTPjR5zb3OR-80">
                    <mxGeometry y="90" width="140" height="30" as="geometry"/>
                </mxCell>
                <mxCell id="7ix2KAI7kCTPjR5zb3OR-88" style="edgeStyle=orthogonalEdgeStyle;html=1;" edge="1" parent="1" source="7ix2KAI7kCTPjR5zb3OR-84" target="7ix2KAI7kCTPjR5zb3OR-86">
                    <mxGeometry relative="1" as="geometry"/>
                </mxCell>
                <mxCell id="7ix2KAI7kCTPjR5zb3OR-91" value="False" style="edgeLabel;html=1;align=center;verticalAlign=middle;resizable=0;points=[];" vertex="1" connectable="0" parent="7ix2KAI7kCTPjR5zb3OR-88">
                    <mxGeometry x="-0.4369" relative="1" as="geometry">
                        <mxPoint y="-20" as="offset"/>
                    </mxGeometry>
                </mxCell>
                <mxCell id="7ix2KAI7kCTPjR5zb3OR-89" style="edgeStyle=orthogonalEdgeStyle;html=1;" edge="1" parent="1" source="7ix2KAI7kCTPjR5zb3OR-84" target="7ix2KAI7kCTPjR5zb3OR-87">
                    <mxGeometry relative="1" as="geometry"/>
                </mxCell>
                <mxCell id="7ix2KAI7kCTPjR5zb3OR-90" value="True" style="edgeLabel;html=1;align=center;verticalAlign=middle;resizable=0;points=[];" vertex="1" connectable="0" parent="7ix2KAI7kCTPjR5zb3OR-89">
                    <mxGeometry x="-0.4329" y="2" relative="1" as="geometry">
                        <mxPoint y="-18" as="offset"/>
                    </mxGeometry>
                </mxCell>
                <mxCell id="7ix2KAI7kCTPjR5zb3OR-84" value="Caught?" style="rhombus;whiteSpace=wrap;html=1;" vertex="1" parent="1">
                    <mxGeometry x="107.5" y="1303.92" width="80" height="80" as="geometry"/>
                </mxCell>
                <mxCell id="7ix2KAI7kCTPjR5zb3OR-86" value="Game Continue" style="rounded=1;whiteSpace=wrap;html=1;" vertex="1" parent="1">
                    <mxGeometry x="-37.5" y="1443.92" width="120" height="60" as="geometry"/>
                </mxCell>
                <mxCell id="7ix2KAI7kCTPjR5zb3OR-87" value="Disc lift" style="rounded=1;whiteSpace=wrap;html=1;" vertex="1" parent="1">
                    <mxGeometry x="212.5" y="1443.92" width="120" height="60" as="geometry"/>
                </mxCell>
                <mxCell id="7ix2KAI7kCTPjR5zb3OR-92" value="Data" style="swimlane;fontStyle=0;childLayout=stackLayout;horizontal=1;startSize=30;horizontalStack=0;resizeParent=1;resizeParentMax=0;resizeLast=0;collapsible=1;marginBottom=0;whiteSpace=wrap;html=1;" vertex="1" collapsed="1" parent="1">
                    <mxGeometry x="337.5" y="1443.92" width="70" height="30" as="geometry">
                        <mxRectangle x="350" y="1320" width="140" height="90" as="alternateBounds"/>
                    </mxGeometry>
                </mxCell>
                <mxCell id="7ix2KAI7kCTPjR5zb3OR-93" value="team:str" style="text;strokeColor=none;fillColor=none;align=left;verticalAlign=middle;spacingLeft=4;spacingRight=4;overflow=hidden;points=[[0,0.5],[1,0.5]];portConstraint=eastwest;rotatable=0;whiteSpace=wrap;html=1;" vertex="1" parent="7ix2KAI7kCTPjR5zb3OR-92">
                    <mxGeometry y="30" width="140" height="30" as="geometry"/>
                </mxCell>
                <mxCell id="7ix2KAI7kCTPjR5zb3OR-94" value="player:int" style="text;strokeColor=none;fillColor=none;align=left;verticalAlign=middle;spacingLeft=4;spacingRight=4;overflow=hidden;points=[[0,0.5],[1,0.5]];portConstraint=eastwest;rotatable=0;whiteSpace=wrap;html=1;" vertex="1" parent="7ix2KAI7kCTPjR5zb3OR-92">
                    <mxGeometry y="60" width="140" height="30" as="geometry"/>
                </mxCell>
                <mxCell id="7ix2KAI7kCTPjR5zb3OR-96" value="Data" style="swimlane;fontStyle=0;childLayout=stackLayout;horizontal=1;startSize=30;horizontalStack=0;resizeParent=1;resizeParentMax=0;resizeLast=0;collapsible=1;marginBottom=0;whiteSpace=wrap;html=1;" vertex="1" collapsed="1" parent="1">
                    <mxGeometry x="87.5" y="1443.92" width="70" height="30" as="geometry">
                        <mxRectangle x="87.5" y="1443.92" width="140" height="90" as="alternateBounds"/>
                    </mxGeometry>
                </mxCell>
                <mxCell id="7ix2KAI7kCTPjR5zb3OR-97" value="team:str" style="text;strokeColor=none;fillColor=none;align=left;verticalAlign=middle;spacingLeft=4;spacingRight=4;overflow=hidden;points=[[0,0.5],[1,0.5]];portConstraint=eastwest;rotatable=0;whiteSpace=wrap;html=1;" vertex="1" parent="7ix2KAI7kCTPjR5zb3OR-96">
                    <mxGeometry y="30" width="140" height="30" as="geometry"/>
                </mxCell>
                <mxCell id="7ix2KAI7kCTPjR5zb3OR-98" value="player:int" style="text;strokeColor=none;fillColor=none;align=left;verticalAlign=middle;spacingLeft=4;spacingRight=4;overflow=hidden;points=[[0,0.5],[1,0.5]];portConstraint=eastwest;rotatable=0;whiteSpace=wrap;html=1;" vertex="1" parent="7ix2KAI7kCTPjR5zb3OR-96">
                    <mxGeometry y="60" width="140" height="30" as="geometry"/>
                </mxCell>
                <mxCell id="7ix2KAI7kCTPjR5zb3OR-99" value="Disc lift" style="rounded=1;whiteSpace=wrap;html=1;" vertex="1" parent="1">
                    <mxGeometry x="-350" y="1293.92" width="120" height="60" as="geometry"/>
                </mxCell>
                <mxCell id="7ix2KAI7kCTPjR5zb3OR-100" value="Data" style="swimlane;fontStyle=0;childLayout=stackLayout;horizontal=1;startSize=30;horizontalStack=0;resizeParent=1;resizeParentMax=0;resizeLast=0;collapsible=1;marginBottom=0;whiteSpace=wrap;html=1;" vertex="1" collapsed="1" parent="1">
                    <mxGeometry x="-225" y="1293.92" width="70" height="30" as="geometry">
                        <mxRectangle x="350" y="1320" width="140" height="90" as="alternateBounds"/>
                    </mxGeometry>
                </mxCell>
                <mxCell id="7ix2KAI7kCTPjR5zb3OR-101" value="team:str" style="text;strokeColor=none;fillColor=none;align=left;verticalAlign=middle;spacingLeft=4;spacingRight=4;overflow=hidden;points=[[0,0.5],[1,0.5]];portConstraint=eastwest;rotatable=0;whiteSpace=wrap;html=1;" vertex="1" parent="7ix2KAI7kCTPjR5zb3OR-100">
                    <mxGeometry y="30" width="140" height="30" as="geometry"/>
                </mxCell>
                <mxCell id="7ix2KAI7kCTPjR5zb3OR-102" value="player:int" style="text;strokeColor=none;fillColor=none;align=left;verticalAlign=middle;spacingLeft=4;spacingRight=4;overflow=hidden;points=[[0,0.5],[1,0.5]];portConstraint=eastwest;rotatable=0;whiteSpace=wrap;html=1;" vertex="1" parent="7ix2KAI7kCTPjR5zb3OR-100">
                    <mxGeometry y="60" width="140" height="30" as="geometry"/>
                </mxCell>
                <mxCell id="7ix2KAI7kCTPjR5zb3OR-111" style="edgeStyle=orthogonalEdgeStyle;html=1;" edge="1" parent="1" source="7ix2KAI7kCTPjR5zb3OR-108" target="7ix2KAI7kCTPjR5zb3OR-58">
                    <mxGeometry relative="1" as="geometry"/>
                </mxCell>
                <mxCell id="7ix2KAI7kCTPjR5zb3OR-112" value="False" style="edgeLabel;html=1;align=center;verticalAlign=middle;resizable=0;points=[];" vertex="1" connectable="0" parent="7ix2KAI7kCTPjR5zb3OR-111">
                    <mxGeometry x="-0.1514" y="2" relative="1" as="geometry">
                        <mxPoint y="-22" as="offset"/>
                    </mxGeometry>
                </mxCell>
                <mxCell id="7ix2KAI7kCTPjR5zb3OR-114" style="edgeStyle=orthogonalEdgeStyle;html=1;entryX=0.5;entryY=0;entryDx=0;entryDy=0;" edge="1" parent="1" source="7ix2KAI7kCTPjR5zb3OR-108" target="7ix2KAI7kCTPjR5zb3OR-113">
                    <mxGeometry relative="1" as="geometry"/>
                </mxCell>
                <mxCell id="7ix2KAI7kCTPjR5zb3OR-115" value="True" style="edgeLabel;html=1;align=center;verticalAlign=middle;resizable=0;points=[];" vertex="1" connectable="0" parent="7ix2KAI7kCTPjR5zb3OR-114">
                    <mxGeometry x="0.135" y="-1" relative="1" as="geometry">
                        <mxPoint x="-65" y="-21" as="offset"/>
                    </mxGeometry>
                </mxCell>
                <mxCell id="7ix2KAI7kCTPjR5zb3OR-108" value="Call?" style="rhombus;whiteSpace=wrap;html=1;" vertex="1" parent="1">
                    <mxGeometry x="540" y="770" width="80" height="80" as="geometry"/>
                </mxCell>
                <mxCell id="7ix2KAI7kCTPjR5zb3OR-113" value="Caught?" style="rhombus;whiteSpace=wrap;html=1;" vertex="1" parent="1">
                    <mxGeometry x="980" y="910" width="80" height="80" as="geometry"/>
                </mxCell>
            </root>
        </mxGraphModel>
    </diagram>
</mxfile>